<svg viewBox="0 0 100 100" fill="none" xmlns="http://www.w3.org/2000/svg" role="img" aria-label="Columbus Technology Institute">
  <path d="M 50 50 C 65.08 36.57 58.9 15.63 46.81 10.06 C 37.62 19.42 43.58 38.78 50 50 Z M 50 50 C 70.16 51.17 80.6 31.99 75.99 19.5 C 62.87 19.63 53.39 37.53 50 50 Z M 50 50 C 63.43 65.08 84.37 58.9 89.94 46.81 C 80.58 37.62 61.22 43.58 50 50 Z M 50 50 C 48.83 70.16 68.01 80.6 80.5 75.99 C 80.37 62.87 62.47 53.39 50 50 Z M 50 50 C 34.92 63.43 41.1 84.37 53.19 89.94 C 62.38 80.58 56.42 61.22 50 50 Z M 50 50 C 29.84 48.83 19.4 68.01 24.01 80.5 C 37.13 80.37 46.61 62.47 50 50 Z M 50 50 C 36.57 34.92 15.63 41.1 10.06 53.19 C 19.42 62.38 38.78 56.42 50 50 Z M 50 50 C 51.17 29.84 31.99 19.4 19.5 24.01 C 19.63 37.13 37.53 46.61 50 50 Z" stroke="#912F56" stroke-width="3.6" stroke-linejoin="round" stroke-linecap="round"/>
</svg>
